<mxfile host="app.diagrams.net" modified="2024-02-22T19:50:11.808Z" agent="Mozilla/5.0 (Windows NT 10.0; Win64; x64) AppleWebKit/537.36 (KHTML, like Gecko) Chrome/121.0.0.0 Safari/537.36" etag="OsLbu6Kuj58j96w3JPn3" version="23.1.5" type="google">
  <diagram name="Página-1" id="rtVxUJ6KoR1bTFE_r9R9">
    <mxGraphModel grid="1" page="1" gridSize="10" guides="1" tooltips="1" connect="1" arrows="1" fold="1" pageScale="1" pageWidth="827" pageHeight="1169" math="0" shadow="0">
      <root>
        <mxCell id="0" />
        <mxCell id="1" parent="0" />
        <mxCell id="OPwogbzZfbqIxYzdVJNW-49" style="rounded=0;orthogonalLoop=1;jettySize=auto;html=1;entryX=0.5;entryY=0;entryDx=0;entryDy=0;endArrow=ERmany;endFill=0;" edge="1" parent="1" source="OPwogbzZfbqIxYzdVJNW-1" target="OPwogbzZfbqIxYzdVJNW-30">
          <mxGeometry relative="1" as="geometry" />
        </mxCell>
        <mxCell id="OPwogbzZfbqIxYzdVJNW-1" value="" style="shape=internalStorage;whiteSpace=wrap;html=1;backgroundOutline=1;dx=0;dy=30;" vertex="1" parent="1">
          <mxGeometry x="80" y="80" width="240" height="180" as="geometry" />
        </mxCell>
        <mxCell id="OPwogbzZfbqIxYzdVJNW-5" value="&lt;b&gt;Socios&lt;/b&gt;" style="text;html=1;align=center;verticalAlign=middle;whiteSpace=wrap;rounded=0;" vertex="1" parent="1">
          <mxGeometry x="80" y="80" width="240" height="30" as="geometry" />
        </mxCell>
        <mxCell id="OPwogbzZfbqIxYzdVJNW-9" value="&lt;b&gt;id NUMERICO NOT NULL&lt;/b&gt;&lt;br&gt;nombre TEXTO NOT NULL&lt;br&gt;apellido_1 TEXTO NOT NULL&lt;br&gt;apellido_2 TEXTO&lt;br&gt;dni TEXTO NOT NULL&lt;br&gt;fecha_nacimiento FECHA NOT NULL&lt;br&gt;telefono TEXTO NOT NULL&lt;br&gt;email TEXTO&lt;br&gt;id_direccion NUMÉRICO NOT NULL" style="text;html=1;align=left;verticalAlign=middle;whiteSpace=wrap;rounded=0;" vertex="1" parent="1">
          <mxGeometry x="102" y="120" width="210" height="122" as="geometry" />
        </mxCell>
        <mxCell id="OPwogbzZfbqIxYzdVJNW-14" value="" style="endArrow=none;html=1;rounded=0;exitX=0.082;exitY=1.003;exitDx=0;exitDy=0;exitPerimeter=0;" edge="1" parent="1" source="OPwogbzZfbqIxYzdVJNW-1">
          <mxGeometry width="50" height="50" relative="1" as="geometry">
            <mxPoint x="99.68000000000006" y="249.47000000000003" as="sourcePoint" />
            <mxPoint x="100" y="111" as="targetPoint" />
          </mxGeometry>
        </mxCell>
        <mxCell id="OPwogbzZfbqIxYzdVJNW-19" value="" style="endArrow=none;html=1;rounded=0;" edge="1" parent="1">
          <mxGeometry width="50" height="50" relative="1" as="geometry">
            <mxPoint x="80" y="130" as="sourcePoint" />
            <mxPoint x="320" y="130" as="targetPoint" />
          </mxGeometry>
        </mxCell>
        <mxCell id="OPwogbzZfbqIxYzdVJNW-20" value="&lt;font style=&quot;font-size: 11px;&quot;&gt;PK&lt;/font&gt;" style="text;html=1;align=center;verticalAlign=middle;whiteSpace=wrap;rounded=0;" vertex="1" parent="1">
          <mxGeometry x="75" y="112" width="30" height="20" as="geometry" />
        </mxCell>
        <mxCell id="OPwogbzZfbqIxYzdVJNW-21" value="&lt;font style=&quot;font-size: 11px;&quot;&gt;FK&lt;/font&gt;" style="text;html=1;align=center;verticalAlign=middle;whiteSpace=wrap;rounded=0;" vertex="1" parent="1">
          <mxGeometry x="75" y="228" width="30" height="20" as="geometry" />
        </mxCell>
        <mxCell id="OPwogbzZfbqIxYzdVJNW-22" value="" style="shape=internalStorage;whiteSpace=wrap;html=1;backgroundOutline=1;dx=0;dy=30;" vertex="1" parent="1">
          <mxGeometry x="419" y="79.46" width="240" height="140.54" as="geometry" />
        </mxCell>
        <mxCell id="OPwogbzZfbqIxYzdVJNW-23" value="&lt;b&gt;Direcciones&lt;/b&gt;" style="text;html=1;align=center;verticalAlign=middle;whiteSpace=wrap;rounded=0;" vertex="1" parent="1">
          <mxGeometry x="419" y="79.46000000000001" width="240" height="30" as="geometry" />
        </mxCell>
        <mxCell id="OPwogbzZfbqIxYzdVJNW-24" value="&lt;br&gt;&lt;div&gt;&amp;nbsp; &amp;nbsp; id_direccion NUMÉRICO NOT NULL&lt;/div&gt;&lt;div&gt;&lt;br&gt;&lt;/div&gt;&lt;div&gt;&amp;nbsp; &amp;nbsp; codigo_postal TEXTO&lt;/div&gt;&lt;div&gt;&amp;nbsp; &amp;nbsp; calle TEXTO,&lt;/div&gt;&lt;div&gt;&amp;nbsp; &amp;nbsp; numero TEXTO,&lt;/div&gt;&lt;div&gt;&amp;nbsp; &amp;nbsp; piso TEXO&lt;/div&gt;" style="text;html=1;align=left;verticalAlign=middle;whiteSpace=wrap;rounded=0;" vertex="1" parent="1">
          <mxGeometry x="428" y="100" width="231" height="122" as="geometry" />
        </mxCell>
        <mxCell id="OPwogbzZfbqIxYzdVJNW-25" value="" style="endArrow=none;html=1;rounded=0;exitX=0.082;exitY=1.003;exitDx=0;exitDy=0;exitPerimeter=0;" edge="1" parent="1" source="OPwogbzZfbqIxYzdVJNW-22">
          <mxGeometry width="50" height="50" relative="1" as="geometry">
            <mxPoint x="438.68000000000006" y="248.93000000000004" as="sourcePoint" />
            <mxPoint x="439" y="110.46000000000001" as="targetPoint" />
          </mxGeometry>
        </mxCell>
        <mxCell id="OPwogbzZfbqIxYzdVJNW-26" value="" style="endArrow=none;html=1;rounded=0;" edge="1" parent="1">
          <mxGeometry width="50" height="50" relative="1" as="geometry">
            <mxPoint x="419" y="149.46" as="sourcePoint" />
            <mxPoint x="659" y="149.46" as="targetPoint" />
          </mxGeometry>
        </mxCell>
        <mxCell id="OPwogbzZfbqIxYzdVJNW-27" value="&lt;font style=&quot;font-size: 11px;&quot;&gt;PK&lt;/font&gt;" style="text;html=1;align=center;verticalAlign=middle;whiteSpace=wrap;rounded=0;" vertex="1" parent="1">
          <mxGeometry x="414" y="111.46000000000001" width="30" height="20" as="geometry" />
        </mxCell>
        <mxCell id="OPwogbzZfbqIxYzdVJNW-28" value="&lt;font style=&quot;font-size: 11px;&quot;&gt;FK&lt;/font&gt;" style="text;html=1;align=center;verticalAlign=middle;whiteSpace=wrap;rounded=0;" vertex="1" parent="1">
          <mxGeometry x="414" y="132.46" width="30" height="20" as="geometry" />
        </mxCell>
        <mxCell id="OPwogbzZfbqIxYzdVJNW-54" style="edgeStyle=orthogonalEdgeStyle;rounded=0;orthogonalLoop=1;jettySize=auto;html=1;entryX=0;entryY=0.5;entryDx=0;entryDy=0;endArrow=ERone;endFill=0;" edge="1" parent="1" source="OPwogbzZfbqIxYzdVJNW-29" target="OPwogbzZfbqIxYzdVJNW-39">
          <mxGeometry relative="1" as="geometry" />
        </mxCell>
        <mxCell id="OPwogbzZfbqIxYzdVJNW-29" value="" style="shape=internalStorage;whiteSpace=wrap;html=1;backgroundOutline=1;dx=0;dy=30;" vertex="1" parent="1">
          <mxGeometry x="80" y="360" width="240" height="180" as="geometry" />
        </mxCell>
        <mxCell id="OPwogbzZfbqIxYzdVJNW-30" value="&lt;b&gt;Préstamos&lt;/b&gt;" style="text;html=1;align=center;verticalAlign=middle;whiteSpace=wrap;rounded=0;" vertex="1" parent="1">
          <mxGeometry x="80" y="360" width="240" height="30" as="geometry" />
        </mxCell>
        <mxCell id="OPwogbzZfbqIxYzdVJNW-31" value="&lt;b&gt;id NUMERICO NOT NULL&lt;br&gt;&lt;/b&gt;&lt;div&gt;id_pelicula NUMÉRICO NOT NULL&lt;/div&gt;&lt;div&gt;id_socio NUMÉRICO NOT NULL&lt;/div&gt;&lt;div&gt;fecha_alquiler FECHA NOT NULL,&lt;/div&gt;&lt;div&gt;fecha_devolucion FECHA&lt;/div&gt;" style="text;html=1;align=left;verticalAlign=middle;whiteSpace=wrap;rounded=0;" vertex="1" parent="1">
          <mxGeometry x="105" y="370" width="230" height="122" as="geometry" />
        </mxCell>
        <mxCell id="OPwogbzZfbqIxYzdVJNW-32" value="" style="endArrow=none;html=1;rounded=0;exitX=0.082;exitY=1.003;exitDx=0;exitDy=0;exitPerimeter=0;" edge="1" parent="1" source="OPwogbzZfbqIxYzdVJNW-29">
          <mxGeometry width="50" height="50" relative="1" as="geometry">
            <mxPoint x="99.68000000000006" y="529.47" as="sourcePoint" />
            <mxPoint x="100" y="391" as="targetPoint" />
          </mxGeometry>
        </mxCell>
        <mxCell id="OPwogbzZfbqIxYzdVJNW-33" value="" style="endArrow=none;html=1;rounded=0;" edge="1" parent="1">
          <mxGeometry width="50" height="50" relative="1" as="geometry">
            <mxPoint x="80" y="410" as="sourcePoint" />
            <mxPoint x="320" y="410" as="targetPoint" />
          </mxGeometry>
        </mxCell>
        <mxCell id="OPwogbzZfbqIxYzdVJNW-34" value="&lt;font style=&quot;font-size: 11px;&quot;&gt;PK&lt;/font&gt;" style="text;html=1;align=center;verticalAlign=middle;whiteSpace=wrap;rounded=0;" vertex="1" parent="1">
          <mxGeometry x="75" y="390" width="30" height="20" as="geometry" />
        </mxCell>
        <mxCell id="OPwogbzZfbqIxYzdVJNW-35" value="&lt;font style=&quot;font-size: 11px;&quot;&gt;FK&lt;/font&gt;" style="text;html=1;align=center;verticalAlign=middle;whiteSpace=wrap;rounded=0;" vertex="1" parent="1">
          <mxGeometry x="75" y="421" width="30" height="20" as="geometry" />
        </mxCell>
        <mxCell id="OPwogbzZfbqIxYzdVJNW-36" value="&lt;font style=&quot;font-size: 11px;&quot;&gt;FK&lt;/font&gt;" style="text;html=1;align=center;verticalAlign=middle;whiteSpace=wrap;rounded=0;" vertex="1" parent="1">
          <mxGeometry x="75" y="407" width="30" height="20" as="geometry" />
        </mxCell>
        <mxCell id="OPwogbzZfbqIxYzdVJNW-39" value="" style="shape=internalStorage;whiteSpace=wrap;html=1;backgroundOutline=1;dx=0;dy=30;" vertex="1" parent="1">
          <mxGeometry x="424" y="359.46" width="240" height="180" as="geometry" />
        </mxCell>
        <mxCell id="OPwogbzZfbqIxYzdVJNW-41" value="&lt;b&gt;id NUMERICO NOT NULL&lt;br&gt;&lt;/b&gt;&lt;div&gt;&lt;div&gt;titulo TEXTO NOT NULL,&lt;/div&gt;&lt;div&gt;genero TEXTO NOT NULL,&lt;/div&gt;&lt;div&gt;sinopsis TEXTO NOT NULL,&lt;/div&gt;&lt;div&gt;director TEXTO NOT NULL&lt;/div&gt;&lt;/div&gt;" style="text;html=1;align=left;verticalAlign=middle;whiteSpace=wrap;rounded=0;" vertex="1" parent="1">
          <mxGeometry x="448" y="369.46" width="230" height="122" as="geometry" />
        </mxCell>
        <mxCell id="OPwogbzZfbqIxYzdVJNW-42" value="" style="endArrow=none;html=1;rounded=0;exitX=0.082;exitY=1.003;exitDx=0;exitDy=0;exitPerimeter=0;" edge="1" parent="1" source="OPwogbzZfbqIxYzdVJNW-39">
          <mxGeometry width="50" height="50" relative="1" as="geometry">
            <mxPoint x="443.68000000000006" y="528.9300000000001" as="sourcePoint" />
            <mxPoint x="444" y="390.46" as="targetPoint" />
          </mxGeometry>
        </mxCell>
        <mxCell id="OPwogbzZfbqIxYzdVJNW-43" value="" style="endArrow=none;html=1;rounded=0;" edge="1" parent="1">
          <mxGeometry width="50" height="50" relative="1" as="geometry">
            <mxPoint x="424" y="409.46" as="sourcePoint" />
            <mxPoint x="664" y="409.46" as="targetPoint" />
          </mxGeometry>
        </mxCell>
        <mxCell id="OPwogbzZfbqIxYzdVJNW-44" value="&lt;font style=&quot;font-size: 11px;&quot;&gt;PK&lt;/font&gt;" style="text;html=1;align=center;verticalAlign=middle;whiteSpace=wrap;rounded=0;" vertex="1" parent="1">
          <mxGeometry x="419" y="389.46" width="30" height="20" as="geometry" />
        </mxCell>
        <mxCell id="OPwogbzZfbqIxYzdVJNW-47" value="&lt;b&gt;Películas&lt;/b&gt;" style="text;html=1;align=center;verticalAlign=middle;whiteSpace=wrap;rounded=0;" vertex="1" parent="1">
          <mxGeometry x="424" y="359.46" width="240" height="30" as="geometry" />
        </mxCell>
        <mxCell id="OPwogbzZfbqIxYzdVJNW-51" value="" style="endArrow=none;html=1;rounded=0;" edge="1" parent="1">
          <mxGeometry width="50" height="50" relative="1" as="geometry">
            <mxPoint x="205" y="264" as="sourcePoint" />
            <mxPoint x="195" y="264" as="targetPoint" />
          </mxGeometry>
        </mxCell>
        <mxCell id="OPwogbzZfbqIxYzdVJNW-55" value="" style="endArrow=none;html=1;rounded=0;" edge="1" parent="1">
          <mxGeometry width="50" height="50" relative="1" as="geometry">
            <mxPoint x="324" y="445" as="sourcePoint" />
            <mxPoint x="324" y="455" as="targetPoint" />
          </mxGeometry>
        </mxCell>
        <mxCell id="OPwogbzZfbqIxYzdVJNW-56" style="edgeStyle=orthogonalEdgeStyle;rounded=0;orthogonalLoop=1;jettySize=auto;html=1;entryX=1.012;entryY=0.384;entryDx=0;entryDy=0;entryPerimeter=0;endArrow=ERmany;endFill=0;" edge="1" parent="1" source="OPwogbzZfbqIxYzdVJNW-22" target="OPwogbzZfbqIxYzdVJNW-1">
          <mxGeometry relative="1" as="geometry" />
        </mxCell>
        <mxCell id="OPwogbzZfbqIxYzdVJNW-57" value="" style="endArrow=none;html=1;rounded=0;" edge="1" parent="1">
          <mxGeometry width="50" height="50" relative="1" as="geometry">
            <mxPoint x="415" y="145" as="sourcePoint" />
            <mxPoint x="415" y="155" as="targetPoint" />
          </mxGeometry>
        </mxCell>
      </root>
    </mxGraphModel>
  </diagram>
</mxfile>
